<svg fill="none" xmlns="http://www.w3.org/2000/svg" viewBox="0 0 150 48"><circle cx="24" cy="24" r="24" fill="#6D3B27"/><path d="M44.4 24c1.988 0 3.628 1.62 3.33 3.587A24 24 0 1120.413.269C22.38-.028 24 1.612 24 3.6s-1.63 3.561-3.573 3.984a16.8 16.8 0 1019.989 19.989C40.839 25.63 42.412 24 44.4 24z" fill="#EE8313"/><path d="M12.152 30V18.16h2.176v4.864h4.944V18.16h2.176V30h-2.176v-5.088h-4.944V30h-2.176zm11.594 0V18.16h2.176v5.136l4.512-5.12h2.72l-5.136 5.68L33.362 30h-2.816l-4.624-5.408V30h-2.176zM66.152 30V18.16h2.176v4.864h4.944V18.16h2.176V30h-2.176v-5.088h-4.944V30h-2.176zm11.754 0V18.16h2.176v5.136l4.512-5.12h2.72l-5.136 5.68L87.522 30h-2.816l-4.624-5.408V30h-2.176zm12.53-9.792c-.374 0-.683-.123-.928-.368a1.229 1.229 0 01-.352-.88c0-.341.117-.635.352-.88.245-.245.554-.368.928-.368.373 0 .682.123.928.368a1.2 1.2 0 01.368.88 1.2 1.2 0 01-.368.88 1.258 1.258 0 01-.928.368zM89.38 30v-8.48h2.128V30H89.38zm4.498 0v-8.48h2.128v1.216h.096c.086-.15.219-.33.4-.544.182-.224.432-.416.752-.576.32-.17.726-.256 1.216-.256.65 0 1.184.15 1.6.448.427.288.742.672.944 1.152.214.48.32.997.32 1.552V30h-2.128v-5.2c0-.459-.128-.853-.384-1.184-.256-.33-.64-.496-1.152-.496-.394 0-.714.101-.96.304a1.698 1.698 0 00-.544.752c-.106.31-.16.635-.16.976V30h-2.128zm11.877 0l-3.152-8.48h2.16l2.128 6.048 2.096-6.048h2.16L107.979 30h-2.224zm8.254-9.792a1.26 1.26 0 01-.928-.368 1.231 1.231 0 01-.352-.88c0-.341.118-.635.352-.88a1.26 1.26 0 01.928-.368c.374 0 .683.123.928.368.246.245.368.539.368.88 0 .341-.122.635-.368.88a1.257 1.257 0 01-.928.368zM112.953 30v-8.48h2.128V30h-2.128zm7.923.16c-.693 0-1.264-.09-1.712-.272-.448-.192-.805-.427-1.072-.704a3.514 3.514 0 01-.576-.848 3.84 3.84 0 01-.256-.688l-.048-.288h2.016l.048.176c.043.117.117.256.224.416.117.15.293.283.528.4.235.117.544.176.928.176.459 0 .789-.096.992-.288.203-.203.304-.427.304-.672a.67.67 0 00-.272-.56c-.171-.15-.427-.261-.768-.336l-1.168-.24a6.29 6.29 0 01-1.312-.416 2.761 2.761 0 01-.992-.768c-.256-.33-.384-.752-.384-1.264 0-.757.288-1.381.864-1.872.576-.501 1.36-.752 2.352-.752.629 0 1.147.085 1.552.256.416.17.747.384.992.64.256.256.443.512.56.768.128.256.208.475.24.656l.064.256h-1.952l-.048-.144a1.036 1.036 0 00-.208-.352 1.172 1.172 0 00-.448-.336c-.192-.107-.453-.16-.784-.16-.448 0-.768.096-.96.288-.181.192-.272.395-.272.608 0 .235.101.416.304.544.203.128.464.224.784.288l1.104.24c.789.16 1.435.437 1.936.832.512.395.768.965.768 1.712 0 .501-.133.96-.4 1.376-.256.405-.635.73-1.136.976-.491.235-1.088.352-1.792.352zm6.453-9.952a1.26 1.26 0 01-.928-.368 1.231 1.231 0 01-.352-.88c0-.341.118-.635.352-.88a1.26 1.26 0 01.928-.368c.374 0 .683.123.928.368.246.245.368.539.368.88 0 .341-.122.635-.368.88a1.257 1.257 0 01-.928.368zM126.273 30v-8.48h2.128V30h-2.128zm8.723.16c-.928 0-1.717-.208-2.368-.624a4.154 4.154 0 01-1.488-1.616 4.822 4.822 0 01-.496-2.16c0-.768.165-1.483.496-2.144a4.124 4.124 0 011.488-1.632c.651-.416 1.44-.624 2.368-.624.939 0 1.728.208 2.368.624.651.416 1.141.96 1.472 1.632a4.61 4.61 0 01.512 2.144c0 .768-.171 1.488-.512 2.16a4.04 4.04 0 01-1.472 1.616c-.64.416-1.429.624-2.368.624zm0-1.776c.48 0 .88-.123 1.2-.368.331-.245.581-.565.752-.96a3.3 3.3 0 00.256-1.296c0-.47-.085-.901-.256-1.296a2.314 2.314 0 00-.752-.96c-.32-.245-.72-.368-1.2-.368-.469 0-.869.123-1.2.368a2.314 2.314 0 00-.752.96 3.225 3.225 0 00-.256 1.296c0 .459.085.89.256 1.296.171.395.421.715.752.96s.731.368 1.2.368zM141.307 30v-8.48h2.128v1.216h.096c.085-.15.219-.33.4-.544.181-.224.432-.416.752-.576.32-.17.725-.256 1.216-.256.651 0 1.184.15 1.6.448.427.288.741.672.944 1.152.213.48.32.997.32 1.552V30h-2.128v-5.2c0-.459-.128-.853-.384-1.184-.256-.33-.64-.496-1.152-.496-.395 0-.715.101-.96.304a1.697 1.697 0 00-.544.752c-.107.31-.16.635-.16.976V30h-2.128z" fill="#fff"/></svg>